<mxfile host="Electron" agent="Mozilla/5.0 (Windows NT 10.0; Win64; x64) AppleWebKit/537.36 (KHTML, like Gecko) draw.io/27.0.9 Chrome/134.0.6998.205 Electron/35.4.0 Safari/537.36" version="27.0.9">
  <diagram name="Diagramas_Chat_TCP_Redes" id="L_CamNImE50W-w-9ZZ2D">
    <mxGraphModel dx="1025" dy="516" grid="1" gridSize="10" guides="1" tooltips="1" connect="1" arrows="1" fold="1" page="1" pageScale="1" pageWidth="827" pageHeight="1169" math="0" shadow="0">
      <root>
        <mxCell id="0" />
        <mxCell id="1" parent="0" />
        <mxCell id="4GUBnpu2VjMewoBjiI3v-9" value="&lt;div&gt;Clientes&lt;/div&gt;&lt;div&gt;(Executando em SO Ubuntu e Windows)&lt;/div&gt;&lt;div&gt;&lt;br&gt;&lt;/div&gt;&lt;div&gt;&lt;br&gt;&lt;/div&gt;&lt;div&gt;&lt;br&gt;&lt;/div&gt;&lt;div&gt;&lt;br&gt;&lt;/div&gt;&lt;div&gt;&lt;br&gt;&lt;/div&gt;&lt;div&gt;&lt;br&gt;&lt;/div&gt;" style="rounded=1;whiteSpace=wrap;html=1;" vertex="1" parent="1">
          <mxGeometry x="174" y="250" width="480" height="160" as="geometry" />
        </mxCell>
        <mxCell id="4GUBnpu2VjMewoBjiI3v-8" value="&lt;div&gt;Serviços&lt;/div&gt;&lt;div&gt;(Executando em uma maquina Ubuntu)&lt;/div&gt;&lt;div&gt;&lt;br&gt;&lt;/div&gt;&lt;div&gt;&lt;br&gt;&lt;/div&gt;&lt;div&gt;&lt;br&gt;&lt;/div&gt;&lt;div&gt;&lt;br&gt;&lt;/div&gt;&lt;div&gt;&lt;br&gt;&lt;/div&gt;&lt;div&gt;&lt;br&gt;&lt;/div&gt;&lt;div&gt;&lt;br&gt;&lt;/div&gt;" style="rounded=1;whiteSpace=wrap;html=1;" vertex="1" parent="1">
          <mxGeometry x="174" y="50" width="480" height="160" as="geometry" />
        </mxCell>
        <mxCell id="4GUBnpu2VjMewoBjiI3v-1" value="Windows 1&lt;div&gt;IP: 192.168.1.21&lt;/div&gt;" style="rounded=1;whiteSpace=wrap;html=1;" vertex="1" parent="1">
          <mxGeometry x="194" y="330" width="120" height="60" as="geometry" />
        </mxCell>
        <mxCell id="4GUBnpu2VjMewoBjiI3v-2" value="Servidor&lt;div&gt;IP: 192.168.1.176&lt;/div&gt;&lt;div&gt;Porta Chat: 1998&lt;/div&gt;&lt;div&gt;Porta Admin: 2998&lt;/div&gt;" style="rounded=1;whiteSpace=wrap;html=1;" vertex="1" parent="1">
          <mxGeometry x="354" y="110" width="120" height="80" as="geometry" />
        </mxCell>
        <mxCell id="4GUBnpu2VjMewoBjiI3v-3" value="Windows 2&lt;div&gt;IP: 192.168.1.32&lt;/div&gt;" style="rounded=1;whiteSpace=wrap;html=1;" vertex="1" parent="1">
          <mxGeometry x="514" y="330" width="120" height="60" as="geometry" />
        </mxCell>
        <mxCell id="4GUBnpu2VjMewoBjiI3v-4" value="Linux&lt;br&gt;&lt;div&gt;IP: 192.168.1.176&lt;/div&gt;" style="rounded=1;whiteSpace=wrap;html=1;" vertex="1" parent="1">
          <mxGeometry x="354" y="330" width="120" height="60" as="geometry" />
        </mxCell>
        <mxCell id="4GUBnpu2VjMewoBjiI3v-26" value="" style="edgeStyle=orthogonalEdgeStyle;rounded=0;orthogonalLoop=1;jettySize=auto;html=1;" edge="1" parent="1" source="4GUBnpu2VjMewoBjiI3v-5" target="4GUBnpu2VjMewoBjiI3v-25">
          <mxGeometry relative="1" as="geometry" />
        </mxCell>
        <mxCell id="4GUBnpu2VjMewoBjiI3v-5" value="API Chat TCP&lt;br&gt;&lt;div&gt;IP: 192.168.1.176&lt;/div&gt;&lt;div&gt;Porta: 8080&lt;/div&gt;" style="rounded=1;whiteSpace=wrap;html=1;" vertex="1" parent="1">
          <mxGeometry x="194" y="110" width="120" height="80" as="geometry" />
        </mxCell>
        <mxCell id="4GUBnpu2VjMewoBjiI3v-22" style="edgeStyle=orthogonalEdgeStyle;rounded=0;orthogonalLoop=1;jettySize=auto;html=1;" edge="1" parent="1" source="4GUBnpu2VjMewoBjiI3v-6" target="4GUBnpu2VjMewoBjiI3v-23">
          <mxGeometry relative="1" as="geometry">
            <mxPoint x="694" y="150" as="targetPoint" />
          </mxGeometry>
        </mxCell>
        <mxCell id="4GUBnpu2VjMewoBjiI3v-6" value="Web Chat&lt;br&gt;&lt;div&gt;IP: 192.168.1.176&lt;/div&gt;&lt;div&gt;Porta: 1990&lt;/div&gt;" style="rounded=1;whiteSpace=wrap;html=1;" vertex="1" parent="1">
          <mxGeometry x="514" y="110" width="120" height="80" as="geometry" />
        </mxCell>
        <mxCell id="4GUBnpu2VjMewoBjiI3v-11" value="&lt;div&gt;Chat Privado 1&lt;/div&gt;&lt;div&gt;(Entre SO diferentes)&lt;/div&gt;&lt;div&gt;&lt;br&gt;&lt;/div&gt;&lt;div&gt;&lt;br&gt;&lt;/div&gt;&lt;div&gt;&lt;br&gt;&lt;/div&gt;&lt;div&gt;&lt;br&gt;&lt;/div&gt;&lt;div&gt;&lt;br&gt;&lt;/div&gt;" style="rounded=1;whiteSpace=wrap;html=1;" vertex="1" parent="1">
          <mxGeometry x="174" y="470" width="480" height="140" as="geometry" />
        </mxCell>
        <mxCell id="4GUBnpu2VjMewoBjiI3v-12" value="&lt;div&gt;Chat Privado 2&lt;/div&gt;&lt;div&gt;(Entre SO iguais)&lt;/div&gt;&lt;div&gt;&lt;br&gt;&lt;/div&gt;&lt;div&gt;&lt;br&gt;&lt;/div&gt;&lt;div&gt;&lt;br&gt;&lt;/div&gt;&lt;div&gt;&lt;br&gt;&lt;/div&gt;&lt;div&gt;&lt;br&gt;&lt;/div&gt;" style="rounded=1;whiteSpace=wrap;html=1;" vertex="1" parent="1">
          <mxGeometry x="174" y="670" width="480" height="140" as="geometry" />
        </mxCell>
        <mxCell id="4GUBnpu2VjMewoBjiI3v-18" style="edgeStyle=orthogonalEdgeStyle;rounded=0;orthogonalLoop=1;jettySize=auto;html=1;entryX=0;entryY=0.5;entryDx=0;entryDy=0;" edge="1" parent="1" source="4GUBnpu2VjMewoBjiI3v-13" target="4GUBnpu2VjMewoBjiI3v-14">
          <mxGeometry relative="1" as="geometry" />
        </mxCell>
        <mxCell id="4GUBnpu2VjMewoBjiI3v-13" value="Windows 1&lt;div&gt;IP: 192.168.1.21:&lt;/div&gt;&lt;div&gt;Porta:&amp;nbsp;&lt;/div&gt;" style="rounded=1;whiteSpace=wrap;html=1;" vertex="1" parent="1">
          <mxGeometry x="234" y="530" width="120" height="60" as="geometry" />
        </mxCell>
        <mxCell id="4GUBnpu2VjMewoBjiI3v-19" style="edgeStyle=orthogonalEdgeStyle;rounded=0;orthogonalLoop=1;jettySize=auto;html=1;entryX=1;entryY=0.5;entryDx=0;entryDy=0;" edge="1" parent="1" source="4GUBnpu2VjMewoBjiI3v-14" target="4GUBnpu2VjMewoBjiI3v-13">
          <mxGeometry relative="1" as="geometry" />
        </mxCell>
        <mxCell id="4GUBnpu2VjMewoBjiI3v-14" value="Linux&lt;br&gt;&lt;div&gt;IP: 192.168.1.176&lt;/div&gt;&lt;div&gt;Porta:&amp;nbsp;&lt;/div&gt;" style="rounded=1;whiteSpace=wrap;html=1;" vertex="1" parent="1">
          <mxGeometry x="474" y="530" width="120" height="60" as="geometry" />
        </mxCell>
        <mxCell id="4GUBnpu2VjMewoBjiI3v-20" style="edgeStyle=orthogonalEdgeStyle;rounded=0;orthogonalLoop=1;jettySize=auto;html=1;entryX=0;entryY=0.5;entryDx=0;entryDy=0;" edge="1" parent="1" source="4GUBnpu2VjMewoBjiI3v-15" target="4GUBnpu2VjMewoBjiI3v-16">
          <mxGeometry relative="1" as="geometry" />
        </mxCell>
        <mxCell id="4GUBnpu2VjMewoBjiI3v-15" value="Windows 1&lt;div&gt;IP: 192.168.1.21&lt;/div&gt;&lt;div&gt;Porta:&amp;nbsp;&lt;/div&gt;" style="rounded=1;whiteSpace=wrap;html=1;" vertex="1" parent="1">
          <mxGeometry x="234" y="730" width="120" height="60" as="geometry" />
        </mxCell>
        <mxCell id="4GUBnpu2VjMewoBjiI3v-21" style="edgeStyle=orthogonalEdgeStyle;rounded=0;orthogonalLoop=1;jettySize=auto;html=1;entryX=1;entryY=0.5;entryDx=0;entryDy=0;" edge="1" parent="1" source="4GUBnpu2VjMewoBjiI3v-16" target="4GUBnpu2VjMewoBjiI3v-15">
          <mxGeometry relative="1" as="geometry" />
        </mxCell>
        <mxCell id="4GUBnpu2VjMewoBjiI3v-16" value="Windows 2&lt;div&gt;IP: 192.168.1.32&lt;/div&gt;&lt;div&gt;Porta:&amp;nbsp;&lt;/div&gt;" style="rounded=1;whiteSpace=wrap;html=1;" vertex="1" parent="1">
          <mxGeometry x="474" y="730" width="120" height="60" as="geometry" />
        </mxCell>
        <mxCell id="4GUBnpu2VjMewoBjiI3v-23" value="Permite acesso ao chat broadcast via navegador&lt;div&gt;(Utiliza da API para comunicação com o servidor)&lt;/div&gt;" style="rounded=1;whiteSpace=wrap;html=1;" vertex="1" parent="1">
          <mxGeometry x="694" y="90" width="120" height="120" as="geometry" />
        </mxCell>
        <mxCell id="4GUBnpu2VjMewoBjiI3v-25" value="Permite acesso a algumas funcionalidades do servidor" style="whiteSpace=wrap;html=1;rounded=1;" vertex="1" parent="1">
          <mxGeometry x="14" y="90" width="120" height="120" as="geometry" />
        </mxCell>
        <mxCell id="4GUBnpu2VjMewoBjiI3v-28" value="" style="rounded=1;whiteSpace=wrap;html=1;" vertex="1" parent="1">
          <mxGeometry x="240" y="920" width="360" height="110" as="geometry" />
        </mxCell>
        <mxCell id="4GUBnpu2VjMewoBjiI3v-29" value="Servidor" style="swimlane;childLayout=stackLayout;resizeParent=1;resizeParentMax=0;startSize=20;html=1;" vertex="1" parent="1">
          <mxGeometry x="234.00000000000045" y="1230" width="360" height="480" as="geometry" />
        </mxCell>
        <mxCell id="4GUBnpu2VjMewoBjiI3v-30" value="Cliente" style="swimlane;startSize=20;html=1;" vertex="1" parent="4GUBnpu2VjMewoBjiI3v-29">
          <mxGeometry y="20" width="120" height="460" as="geometry" />
        </mxCell>
        <mxCell id="4GUBnpu2VjMewoBjiI3v-31" value="Lane 2" style="swimlane;startSize=20;html=1;" vertex="1" parent="4GUBnpu2VjMewoBjiI3v-29">
          <mxGeometry x="120" y="20" width="120" height="460" as="geometry" />
        </mxCell>
        <mxCell id="4GUBnpu2VjMewoBjiI3v-32" value="Lane 3" style="swimlane;startSize=20;html=1;" vertex="1" parent="4GUBnpu2VjMewoBjiI3v-29">
          <mxGeometry x="240" y="20" width="120" height="460" as="geometry" />
        </mxCell>
        <mxCell id="4GUBnpu2VjMewoBjiI3v-33" value="ClienteChat (Linux e Windows)" style="swimlane;childLayout=stackLayout;resizeParent=1;resizeParentMax=0;startSize=20;html=1;" vertex="1" parent="1">
          <mxGeometry x="234" y="1770" width="360" height="480" as="geometry" />
        </mxCell>
        <mxCell id="4GUBnpu2VjMewoBjiI3v-34" value="Lane 1" style="swimlane;startSize=20;html=1;" vertex="1" parent="4GUBnpu2VjMewoBjiI3v-33">
          <mxGeometry y="20" width="120" height="460" as="geometry" />
        </mxCell>
        <mxCell id="4GUBnpu2VjMewoBjiI3v-35" value="Lane 2" style="swimlane;startSize=20;html=1;" vertex="1" parent="4GUBnpu2VjMewoBjiI3v-33">
          <mxGeometry x="120" y="20" width="120" height="460" as="geometry" />
        </mxCell>
        <mxCell id="4GUBnpu2VjMewoBjiI3v-36" value="Lane 3" style="swimlane;startSize=20;html=1;" vertex="1" parent="4GUBnpu2VjMewoBjiI3v-33">
          <mxGeometry x="240" y="20" width="120" height="460" as="geometry" />
        </mxCell>
        <mxCell id="4GUBnpu2VjMewoBjiI3v-37" value="Chat&amp;nbsp;&lt;span style=&quot;background-color: transparent; color: light-dark(rgb(0, 0, 0), rgb(255, 255, 255));&quot;&gt;Web&lt;/span&gt;" style="swimlane;childLayout=stackLayout;resizeParent=1;resizeParentMax=0;startSize=20;html=1;" vertex="1" parent="1">
          <mxGeometry x="234" y="2350" width="360" height="480" as="geometry" />
        </mxCell>
        <mxCell id="4GUBnpu2VjMewoBjiI3v-38" value="Lane 1" style="swimlane;startSize=20;html=1;" vertex="1" parent="4GUBnpu2VjMewoBjiI3v-37">
          <mxGeometry y="20" width="120" height="460" as="geometry" />
        </mxCell>
        <mxCell id="4GUBnpu2VjMewoBjiI3v-39" value="Lane 2" style="swimlane;startSize=20;html=1;" vertex="1" parent="4GUBnpu2VjMewoBjiI3v-37">
          <mxGeometry x="120" y="20" width="120" height="460" as="geometry" />
        </mxCell>
        <mxCell id="4GUBnpu2VjMewoBjiI3v-40" value="Lane 3" style="swimlane;startSize=20;html=1;" vertex="1" parent="4GUBnpu2VjMewoBjiI3v-37">
          <mxGeometry x="240" y="20" width="120" height="460" as="geometry" />
        </mxCell>
        <mxCell id="4GUBnpu2VjMewoBjiI3v-41" value="API Chat TCP" style="swimlane;childLayout=stackLayout;resizeParent=1;resizeParentMax=0;startSize=20;html=1;" vertex="1" parent="1">
          <mxGeometry x="234" y="2890" width="360" height="480" as="geometry" />
        </mxCell>
        <mxCell id="4GUBnpu2VjMewoBjiI3v-42" value="Lane 1" style="swimlane;startSize=20;html=1;" vertex="1" parent="4GUBnpu2VjMewoBjiI3v-41">
          <mxGeometry y="20" width="120" height="460" as="geometry" />
        </mxCell>
        <mxCell id="4GUBnpu2VjMewoBjiI3v-43" value="Lane 2" style="swimlane;startSize=20;html=1;" vertex="1" parent="4GUBnpu2VjMewoBjiI3v-41">
          <mxGeometry x="120" y="20" width="120" height="460" as="geometry" />
        </mxCell>
        <mxCell id="4GUBnpu2VjMewoBjiI3v-44" value="Lane 3" style="swimlane;startSize=20;html=1;" vertex="1" parent="4GUBnpu2VjMewoBjiI3v-41">
          <mxGeometry x="240" y="20" width="120" height="460" as="geometry" />
        </mxCell>
      </root>
    </mxGraphModel>
  </diagram>
</mxfile>
